<?xml version="1.0" encoding="iso-8859-1"?>
<!-- Generator: Adobe Illustrator 19.0.0, SVG Export Plug-In . SVG Version: 6.00 Build 0)  -->
<svg version="1.1" id="Layer_1" xmlns="http://www.w3.org/2000/svg" xmlns:xlink="http://www.w3.org/1999/xlink" x="0px" y="0px"
	 viewBox="0 0 504.8 504.8" style="enable-background:new 0 0 504.8 504.8;" xml:space="preserve">
<polygon style="fill:#33A5D2;" points="120.4,232.4 120.4,4.4 380.4,4.4 380.4,232.4 465.2,232.4 252.4,500.8 39.6,232.4 "/>
<polygon style="fill:#ACD9EA;" points="252.4,463.6 86.8,252.4 140.4,252.4 140.4,24.4 360.4,24.4 360.4,252.4 418.4,252.4 "/>
<path d="M252.4,504.8c-1.2,0-2.4-0.4-3.2-1.6L36.4,234.8c-0.8-1.2-1.2-2.8-0.4-4.4c0.8-1.2,2-2.4,3.6-2.4h76.8V4c0-2.4,1.6-4,4-4
	h260c2.4,0,4,1.6,4,4v224h80.8c1.6,0,2.8,0.8,3.6,2.4c0.8,1.2,0.4,3.2-0.4,4.4L255.6,503.2C254.8,504,253.6,504.8,252.4,504.8z
	 M48,236.4l204.4,258l204.4-258h-76.4c-2.4,0-4-1.6-4-4V8.4h-252v224c0,2.4-1.6,4-4,4H48z"/>
<path d="M360.4,256.4c-2.4,0-4-1.6-4-4v-224h-212v224c0,2.4-1.6,4-4,4s-4-1.6-4-4v-228c0-2.4,1.6-4,4-4h220c2.4,0,4,1.6,4,4v228
	C364.4,254.8,362.8,256.4,360.4,256.4z"/>
<path d="M217.2,422.4c-1.2,0-2.4-0.4-3.2-1.6L82,254.4c-1.2-1.6-1.2-4.4,0.8-5.6c1.6-1.2,4.4-1.2,5.6,0.8l132,166.4
	c1.2,1.6,1.2,4.4-0.8,5.6C218.8,422.4,218,422.4,217.2,422.4z"/>
<path d="M252.4,467.2c-1.2,0-2.4-0.4-3.2-1.6l-9.6-12c-1.2-1.6-1.2-4.4,0.8-5.6c1.6-1.2,4.4-1.2,5.6,0.8l6.4,8L415.2,250
	c1.2-1.6,4-2,5.6-0.8s2,4,0.8,5.6l-166,210.8C254.8,466.4,253.6,467.2,252.4,467.2L252.4,467.2z"/>
<path d="M418.4,256.4h-58c-2.4,0-4-1.6-4-4s1.6-4,4-4h58c2.4,0,4,1.6,4,4S420.4,256.4,418.4,256.4z"/>
<path d="M140.4,256.4H86.8c-2.4,0-4-1.6-4-4s1.6-4,4-4h53.6c2.4,0,4,1.6,4,4S142.8,256.4,140.4,256.4z"/>
<g>
</g>
<g>
</g>
<g>
</g>
<g>
</g>
<g>
</g>
<g>
</g>
<g>
</g>
<g>
</g>
<g>
</g>
<g>
</g>
<g>
</g>
<g>
</g>
<g>
</g>
<g>
</g>
<g>
</g>
</svg>
